<svg xmlns="http://www.w3.org/2000/svg" viewBox="20 80 985 1040"><path d="M512 1120c-32 0-60.917-3.17-86.75-9.5s-50.083-16.67-72.75-31l-273-173q-31-20-45.5-50.25T19.5 779V434.5q0-49.5 12.75-86T72 285.25t69.5-46.75L442.5 96q18-8.5 36-12.25T512 80q16 0 33.75 3.75T581.5 96l301 142.5q43 20 69.75 46.75t39.5 63.25 12.75 86V779q0 47-14.5 77.25t-45.5 50.25l-273 173c-22.667 14.33-46.917 24.67-72.75 31S544 1120 512 1120M386.5 964.5q-18 0-34.5-12.5t-27-32-10.5-40.5q0-20.5 9.5-32t26.5-11.5q19 0 36.25 12.5T415 880.75t11 40.75q0 20-10.5 31.5t-29 11.5m48 103c15.667 0 28.917-5.67 39.75-17s16.25-30.17 16.25-56.5V659.5q0-29.5-10.25-47t-36.25-33L130 395q-24.5-14.5-39-14.5-16.5 0-23.75 18t-7.25 56V779q0 38.5 9 59t32 35l277 175.5c20 12.67 38.833 19 56.5 19M194 612.5q-18 0-34.5-12.5t-27-32-10.5-40.5q0-20.5 9.5-32T158 484q19 0 36.25 12.5t28.25 32.25 11 40.75q0 20-10.5 31.5t-29 11.5m443.5 352q-18.5 0-29-11.5T598 921.5q0-21 11-40.75t28.5-32.25 36-12.5q17 0 26.5 11.5t9.5 32q0 21-10.5 40.5t-27 32-34.5 12.5m-48 103c17.667 0 36.5-6.33 56.5-19L923 873q23.5-14.5 32.25-35t8.75-59V454.5q0-38-7.25-56t-23.75-18q-14.5 0-39 14.5L580 579.5q-26 15.5-36.25 33t-10.25 47V994c0 26.33 5.417 45.17 16.25 56.5s24.083 17 39.75 17m146-280.5q-18.5 0-29-11.5T696 744q0-21 11-40.75T735.5 671t36-12.5q17 0 26.5 11.5t9.5 32q0 21-10.5 40.5t-27 32-34.5 12.5M512 560.5q11.5 0 23-4t25.5-12l312-183q18-10.5 27-21.25t9-21.25q0-11.5-11.25-23t-34.75-22.5L561.5 130q-14-7-26-9.75T512 117.5t-23.5 2.75-26 9.75l-301 143.5q-23 11-34.5 22.5t-11.5 23q0 10.5 9 21.25t27 21.25l312 183q14 8 25.5 12t23 4m0-161.5q-44.5 0-76.5-22.75t-32-54.75 31.75-54.5T512 244.5t76.75 22.5 31.75 54.5-32 54.75T512 399m318 213.5q-18.5 0-29-11.5t-10.5-31.5q0-21 11-40.75T830 496.5t36-12.5q17 0 26.5 11.5t9.5 32q0 21-10.5 40.5t-27 32-34.5 12.5"/></svg>